<?xml version="1.0" encoding="utf-8"?>
<!-- Generator: Adobe Illustrator 24.1.3, SVG Export Plug-In . SVG Version: 6.00 Build 0)  -->
<svg version="1.1" id="Layer_1" xmlns="http://www.w3.org/2000/svg" xmlns:xlink="http://www.w3.org/1999/xlink" x="0px" y="0px"
	 viewBox="0 0 500 500" style="enable-background:new 0 0 500 500;" xml:space="preserve">
<style type="text/css">
	.st0{display:none;fill:none;}
	.st1{fill:#FFFFFF;}
	.st2{fill:#FFD400;}
	.st3{fill:#000100;}
	.st4{fill:url(#SVGID_1_);}
	.st5{fill:#FE7825;}
	.st6{fill:url(#SVGID_2_);}
	.st7{fill:url(#SVGID_3_);}
	.st8{fill:url(#SVGID_4_);}
	.st9{fill:#F6A505;}
	.st10{fill:url(#SVGID_5_);}
	.st11{opacity:0.8;}
	.st12{fill-rule:evenodd;clip-rule:evenodd;fill:#FFFFFF;}
	.st13{fill-rule:evenodd;clip-rule:evenodd;}
	.st14{fill:#B51F20;}
	.st15{fill:#F3A19C;}
</style>
<rect class="st0" width="500" height="500"/>
<path class="st1" d="M72.5,305c-0.9,2.8-13.8,5.8-28.3-5.9c-1.6-1.2-0.8-5,3.3-2.3c5.5,3.7,8.5,5.4,15.9,6.8
	C70.5,304.9,73.1,303,72.5,305z"/>
<path class="st2" d="M75.6,293.5c-4.1,4.4-16.6,3.5-25.3-3.8c-8.4-7.6-22.5,6.3-13.7,17.2c5.7,7.2,29,20.4,44.9,10L75.6,293.5z"/>
<path class="st2" d="M419.6,308.2c0,0,63.9-31.3,36-54.6c-13.2-11.1-26.4,16.4-27.8,19.1C427.9,272.7,379.2,327.7,419.6,308.2z"/>
<path class="st3" d="M462.9,277.7c1.6-3,2.6-5.9,3-8.7c0.4-3.2-0.1-6.4-1.4-9.4c-1.3-3.1-3.6-5.9-6.7-8.6c-3.5-2.9-7.4-4-11.4-3.1
	c-9.8,2.1-17.5,15.1-21.4,22.9c-1.5,1.7-7.7,8.9-13.6,16.8c-3.9,5.3-6.8,9.8-8.7,13.4c-1.2,2.4-2,4.3-2.3,6.1
	c-0.6,2.6-0.2,4.7,1,6.3c1.6,2.1,4.3,2.9,8.1,2.2c3-0.5,6.8-1.9,11.6-4.3l0,0c0.4-0.2,10.5-5.2,21-12.7
	C452.3,291.4,459.2,284.4,462.9,277.7z M432.9,270.4c1.3-2.3,2.7-4.6,4.2-6.7c3.8-5.3,7.5-8.4,10.7-9.1c2-0.4,3.7,0.1,5.6,1.7
	c4.4,3.7,6.2,7.5,5.7,11.8c-0.5,3.8-2.8,8.1-6.9,12.7c-3.5,3.9-8.2,8-14,12.2c-10,7.1-19.8,12-20.1,12.2c-6.9,3.3-10,3.8-11.1,3.8
	c0.2-1.5,1.7-6.3,10.9-18.5c6.1-8.1,12.5-15.4,12.6-15.4c0.2-0.2,0.4-0.5,0.5-0.8l0.1-0.2C431.6,272.8,432.3,271.6,432.9,270.4
	L432.9,270.4z"/>
<path class="st3" d="M67.9,324.6c0.3,0,0.6,0,0.8,0c5.6-0.1,10.6-1.6,14.9-4.5c0.4-0.3,0.8-0.6,1.1-1.1c0.3-0.4,0.5-0.9,0.6-1.4
	c0.1-0.5,0.1-1,0-1.5c-0.1-0.5-0.3-1-0.6-1.4c-0.3-0.4-0.6-0.8-1.1-1.1s-0.9-0.5-1.4-0.6c-0.5-0.1-1-0.1-1.5,0
	c-0.5,0.1-1,0.3-1.4,0.6c-4.1,2.7-11.4,5.1-22.9,1.2c-5.7-1.9-13.6-6.2-16.9-10.3c-1.5-1.9-2.1-3.9-1.9-6c0.2-1.9,1.2-3.7,2.7-5.1
	c3.8-3.6,6.7-1.3,7.3-0.8l0.1,0.1c4.7,3.9,10.3,6.4,16.4,7.2c6.2,0.8,11.3-0.6,14.2-3.7c0.3-0.4,0.6-0.8,0.8-1.3
	c0.2-0.5,0.3-1,0.2-1.5s-0.1-1-0.3-1.5c-0.2-0.5-0.5-0.9-0.9-1.2c-0.4-0.3-0.8-0.6-1.3-0.8c-0.5-0.2-1-0.3-1.5-0.2
	c-0.5,0-1,0.1-1.5,0.3c-0.5,0.2-0.9,0.5-1.2,0.9c-0.9,1-3.7,1.8-7.6,1.3c-4.4-0.5-8.9-2.5-12.3-5.4c-2.6-2.4-6-3.4-9.4-3
	c-3,0.3-5.9,1.8-8.3,4c-2.8,2.6-4.5,6.1-5,9.7c-0.6,4.2,0.7,8.3,3.5,11.8c1.8,2.2,4.6,4.6,8.1,6.9c3.8,2.5,8,4.5,12.3,6
	C58.8,323.8,63.5,324.6,67.9,324.6z"/>
<radialGradient id="SVGID_1_" cx="106.1421" cy="530.5107" r="1.0002" gradientTransform="matrix(-0.1751 204.7559 216.7699 0.1854 -114731.7578 -21626.9062)" gradientUnits="userSpaceOnUse">
	<stop  offset="0" style="stop-color:#FFEF9E"/>
	<stop  offset="0.4524" style="stop-color:#FFD921"/>
	<stop  offset="1" style="stop-color:#FAD001"/>
</radialGradient>
<path class="st4" d="M90.6,196.7c19.7-74.3,90.1-80.2,90.1-80.2s1.8-13.7,9.8-27.7c12.4-0.1,27.2,23.1,27.2,23.1h61.2
	c0,0,14.9-23.2,27.2-23.1c8,14,9.8,27.7,9.8,27.7s67.9,5.8,90.1,80.2c6.3,20.9,11.9,88.4,11.9,120.8c0,55.2-31.5,89.2-87.6,91.4
	l-28.9,0.5c-8.8,0-96.9,0-106,0l-28.7-0.5l-0.6,0c-56.1-2.3-87.6-36.2-87.6-91.4C78.7,285.1,85,217.8,90.6,196.7z"/>
<path class="st3" d="M195.5,413.3c10,0,97.6,0,106,0h0.1l28.9-0.5h0.1c14.3-0.6,27.3-3.2,38.7-7.7c11.3-4.5,21-11,28.8-19.3
	c7.8-8.2,13.8-18.2,17.8-29.7c4-11.4,6-24.4,6-38.5c0-31.4-5.5-100-12.1-121.9c-5.2-17.5-13.4-32.7-24.2-45.3
	c-8.7-10.1-19.1-18.5-31-24.9c-15.5-8.5-29.4-11.4-35.2-12.3c-1-5-3.6-15.4-9.8-26.1c-0.3-0.6-0.8-1.1-1.4-1.4
	c-0.6-0.3-1.3-0.5-1.9-0.5h-0.1c-6.3,0-13.4,4.3-21.1,12.8c-2.9,3.3-5.7,6.7-8.2,10.3h-57c-2.5-3.6-5.2-7.1-8.2-10.3
	c-7.7-8.5-14.8-12.8-21.1-12.8h-0.1c-0.7,0-1.3,0.2-1.9,0.5c-0.6,0.3-1.1,0.8-1.4,1.4c-6.1,10.7-8.8,21.2-9.7,26.1
	c-6,0.9-20.3,3.8-36.2,12.3c-12.1,6.5-22.6,14.9-31.2,25c-10.7,12.6-18.5,27.9-23.2,45.4c-2.7,10.1-5.6,30.8-8.2,56.8
	c-2.4,25.1-3.9,49.4-3.9,65c0,14.1,2,27.1,6,38.5c4,11.5,10,21.5,17.8,29.7c7.9,8.3,17.6,14.8,28.8,19.3c11.4,4.6,24.4,7.2,38.7,7.7
	c0.2,0,0.4,0,0.5,0h0.1L195.5,413.3L195.5,413.3z M258.7,405.5h-63.1l-28.7-0.5c-0.2,0-0.3,0-0.5,0h0c-13.4-0.5-25.6-3-36.1-7.2
	c-10.2-4.1-19-10-26.1-17.4c-7.1-7.4-12.5-16.5-16.1-26.9c-3.7-10.6-5.6-22.7-5.6-36c0-15.4,1.4-39.4,3.9-64.3
	c2.5-25.2,5.4-46,7.9-55.5c4.3-16.3,11.5-30.5,21.5-42.2c7.9-9.4,17.6-17.2,28.8-23.2c8.1-4.3,16.6-7.6,25.5-9.9c6.6-1.7,11-2,11-2
	c0.9-0.1,1.7-0.5,2.4-1.1c0.6-0.6,1.1-1.4,1.2-2.3c0-0.1,1.6-11.7,8.1-24c3.6,1,8.2,4.4,13.2,9.9c3.2,3.5,6.1,7.2,8.7,11.2
	c0.4,0.5,0.8,1,1.4,1.3c0.6,0.3,1.2,0.5,1.9,0.5h61.1c0.7,0,1.3-0.2,1.9-0.5c0.6-0.3,1.1-0.8,1.4-1.3c2.6-3.9,5.5-7.6,8.7-11.1
	c5-5.5,9.6-8.9,13.2-9.9c6.5,12.3,8.1,23.9,8.1,24c0.1,0.9,0.5,1.7,1.2,2.3c0.6,0.6,1.5,1,2.3,1.1c0,0,4.2,0.4,10.6,2
	c8.7,2.3,17,5.6,24.9,9.9c11,6,20.7,13.8,28.7,23.2c10.1,11.7,17.7,26,22.6,42.3c2.8,9.2,5.7,29.4,8.2,55.3
	c2.2,23.8,3.6,48.4,3.6,64.4c0,13.3-1.9,25.4-5.6,36c-3.6,10.4-9.1,19.5-16.1,26.9c-7.1,7.5-15.9,13.3-26.1,17.4
	c-10.5,4.2-22.6,6.6-36,7.2l-28.8,0.5L258.7,405.5z"/>
<path class="st5" d="M172.7,380.7c-1.2,14.1-1,25.4-1,25.4h153.6c7.8-12.4,1-14.3,0-25.4C325.3,301.7,175.8,299.4,172.7,380.7z"/>
<linearGradient id="SVGID_2_" gradientUnits="userSpaceOnUse" x1="-160.8141" y1="-8.7749" x2="394.5189" y2="177.4801" gradientTransform="matrix(1 0 0 -1 0 502)">
	<stop  offset="0.3698" style="stop-color:#E64500;stop-opacity:0.81"/>
	<stop  offset="0.5729" style="stop-color:#FF5C00;stop-opacity:0.79"/>
	<stop  offset="0.9271" style="stop-color:#FF9921"/>
</linearGradient>
<path class="st6" d="M172.7,380.7c-1.2,14.1-1,25.4-1,25.4h153.6c7.8-12.4,1-14.3,0-25.4C325.3,301.7,175.8,299.4,172.7,380.7z"/>
<path class="st5" d="M94,197.2c0,0,10.4,2.2,27.6,22.9c15.9,19.1,11.7,53.1-35.9,49.6C85.8,238.6,94,197.2,94,197.2z"/>
<linearGradient id="SVGID_3_" gradientUnits="userSpaceOnUse" x1="-20.0835" y1="255.7002" x2="151.2871" y2="274.6592" gradientTransform="matrix(1 0 0 -1 0 502)">
	<stop  offset="0.3698" style="stop-color:#E64500;stop-opacity:0.81"/>
	<stop  offset="0.5729" style="stop-color:#FF5C00;stop-opacity:0.79"/>
	<stop  offset="0.9271" style="stop-color:#FF9921"/>
</linearGradient>
<path class="st7" d="M94,197.2c0,0,10.4,2.2,27.6,22.9c15.9,19.1,11.7,53.1-35.9,49.6C85.8,238.6,94,197.2,94,197.2z"/>
<path class="st5" d="M414.1,299.4c0,0-24.9,2.5-25.1-22.2c-0.2-17.3,22-18.8,22-18.8L414.1,299.4z"/>
<linearGradient id="SVGID_4_" gradientUnits="userSpaceOnUse" x1="329.1218" y1="213.7802" x2="426.4428" y2="224.6152" gradientTransform="matrix(1 0 0 -1 0 502)">
	<stop  offset="0.3698" style="stop-color:#E64500;stop-opacity:0.81"/>
	<stop  offset="0.5729" style="stop-color:#FF5C00;stop-opacity:0.79"/>
	<stop  offset="0.9271" style="stop-color:#FF9921"/>
</linearGradient>
<path class="st8" d="M414.1,299.4c0,0-24.9,2.5-25.1-22.2c-0.2-17.3,22-18.8,22-18.8L414.1,299.4z"/>
<path class="st9" d="M145.1,403.2C94.4,391.4,79.4,350.8,83,301.9c1,40.8,44.8,75.6,64.2,77.9c34.9-59.1,90.5-59.1,90.5-59.1
	c-44.5,6-62.7,33.8-64.5,57.8c0,0-1.6,16.8-1.4,26.9C157.2,405.5,145.1,403.2,145.1,403.2z"/>
<path class="st9" d="M351.7,403.3c50.7-11.9,65.7-52.5,62.1-101.3c-1,40.8-44.8,75.6-64.2,78c-34.9-59.1-90.5-59.1-90.5-59.1
	c44.5,6,62.7,33.8,64.5,57.8c0,0,1.6,16.8,1.4,26.9C339.6,405.5,351.7,403.3,351.7,403.3z"/>
<path class="st5" d="M281.9,114.6c0,0-20,52.6,23.1,59c47.3,7,60-32.1,60-32.1c-5.3-4.6-25.8-18.5-51.8-22c-4.4-19.6-9-26.4-9-26.4
	S296.2,93.6,281.9,114.6z"/>
<linearGradient id="SVGID_5_" gradientUnits="userSpaceOnUse" x1="73.5273" y1="321.2924" x2="405.1641" y2="386.4101" gradientTransform="matrix(1 0 0 -1 0 502)">
	<stop  offset="0.3698" style="stop-color:#E64500;stop-opacity:0.81"/>
	<stop  offset="0.5729" style="stop-color:#FF5C00;stop-opacity:0.79"/>
	<stop  offset="0.9271" style="stop-color:#FF9921"/>
</linearGradient>
<path class="st10" d="M281.9,114.6c0,0-20,52.6,23.1,59c47.3,7,60-32.1,60-32.1c-5.3-4.6-25.8-18.5-51.8-22c-4.4-19.6-9-26.4-9-26.4
	S296.2,93.6,281.9,114.6z"/>
<g class="st11">
	<path class="st12" d="M243,135.9c-0.9-0.7-1.6-1.8-2-2.9c-0.5-1.5-0.3-3.2,0.4-4.6c0.7-1.4,2-2.5,3.5-2.9c1.1-0.3,2.3-0.4,3.5,0
		c1.1,0.3,2.1,1,2.9,1.9c0.8,0.9,1.2,2,1.3,3.2c0.1,1.2-0.1,2.4-0.7,3.4c-0.6,1-1.4,1.9-2.5,2.5c-1,0.6-2.2,0.8-3.4,0.7
		C245,137.1,243.9,136.6,243,135.9z M219.5,139c-40.7,6.5-74.8,26.5-88.3,36.7c-13.5,10.2-24.2-5.5,11.4-26.9
		c24-13.3,51.3-20.7,74.6-21.5C228.5,126.9,238.1,136,219.5,139z"/>
</g>
<path class="st3" d="M251.2,263.8c-4.1,0-7.8-1.3-11.2-3.8c-6.2-4.6-11-13.3-14.2-25.9c-2.4-9.2-3-17-3-17.3c0-0.4,0.1-0.8,0.4-1
	c0.3-0.3,0.7-0.4,1.1-0.3c0.2,0,15.4,2.7,22.5-4.5c0.2-0.3,0.6-0.4,0.9-0.4c0.4,0,0.7,0.2,0.9,0.4c3.4,3.5,9.1,4,13.4,3.8
	c5.4-0.2,10.2-1.7,11.9-2.5c0.4-0.2,0.9-0.2,1.2,0s0.6,0.6,0.7,1c0,0.5,0.6,11.5-1.5,23.3c-1.3,7-3.3,12.7-6,17
	c-3.4,5.6-8,8.9-13.5,9.8C253.6,263.7,252.4,263.8,251.2,263.8z M225.5,218.2c0.3,2.7,1.1,8.7,2.8,15.4c3.1,11.8,7.7,20.2,13.3,24.5
	c3.7,2.8,8,3.8,12.7,3c18.7-3.1,19.1-37.5,19-45.8c-2.8,1-6.9,1.9-11.1,2c-4.4,0.2-10.4-0.3-14.5-3.7
	C240.9,219.4,229.7,218.7,225.5,218.2z"/>
<path class="st13" d="M239.1,261.2L239.1,261.2c-6.6-4.9-11.5-14-14.8-26.7l1.4-0.4l-1.4,0.4c-2.4-9.2-3-16.9-3.1-17.6
	c-0.1-0.9,0.3-1.7,1-2.3c0.6-0.5,1.5-0.8,2.3-0.6c0,0,0,0,0,0c0.1,0,1,0.2,2.4,0.3c1.5,0.1,3.6,0.2,5.9,0.1
	c4.6-0.2,9.7-1.3,12.9-4.5l0,0c0.5-0.6,1.3-0.8,2-0.8c0.8,0,1.5,0.3,2,0.8l0,0l0,0c1.4,1.5,3.4,2.4,5.6,2.9c2.2,0.5,4.6,0.6,6.6,0.5
	h0c5.3-0.2,9.8-1.6,11.3-2.4l0.7,1.3l-0.7-1.3c0.8-0.4,1.8-0.4,2.6,0.1c0.9,0.5,1.4,1.3,1.4,2.2v0v0c0,0.5,0.6,11.7-1.6,23.7l0,0
	c-1.3,7.1-3.4,13-6.2,17.5c-3.6,5.9-8.5,9.5-14.6,10.5l0,0c-1.3,0.2-2.5,0.3-3.8,0.3C246.8,265.3,242.7,263.9,239.1,261.2z
	 M268.3,253.7c2.7-4.3,4.7-10.1,6-17c2.2-11.8,1.6-22.8,1.5-23.3 M228.3,233.6c3.1,11.8,7.7,20.2,13.3,24.5c3.7,2.8,8,3.8,12.7,3
	c17.7-3,19-33.9,19-44.2c0-0.6,0-1.1,0-1.6c-0.5,0.2-0.9,0.3-1.5,0.5c-2.7,0.8-6.1,1.4-9.6,1.6c-4.4,0.2-10.4-0.3-14.5-3.7
	c-6.1,5.2-15.8,5.2-20.7,4.8c-0.6,0-1.1-0.1-1.5-0.2c0,0.4,0.1,0.9,0.2,1.5C226,222.8,226.8,228,228.3,233.6z M227.2,219.9
	c0.4,3.1,1.2,8,2.6,13.4l0,0c3,11.7,7.5,19.7,12.8,23.6c3.4,2.5,7.3,3.5,11.6,2.7c4.2-0.7,7.4-3.2,9.9-6.7c2.5-3.6,4.3-8.2,5.5-13.1
	c2.1-8.5,2.4-17.5,2.4-22.5c-2.7,0.8-6.1,1.4-9.6,1.5h0c-4.2,0.2-10.1-0.2-14.5-3.3c-3.6,2.6-8,3.8-11.9,4.3
	C232.5,220.1,229.4,220,227.2,219.9z M262.1,214.8c-4.2,0.2-10-0.3-13.4-3.8c-0.2-0.3-0.6-0.4-0.9-0.4s-0.7,0.1-0.9,0.4
	c-7.1,7.2-22.3,4.5-22.5,4.5c-0.4-0.1-0.8,0-1.1,0.3c-0.3,0.3-0.5,0.6-0.4,1 M240,260c3.4,2.5,7.1,3.8,11.2,3.8
	c1.2,0,2.3-0.1,3.5-0.3c5.5-0.9,10.1-4.2,13.5-9.8"/>
<path class="st14" d="M273.1,212.5c0,0,2.5,45.2-19.2,49c-25.7,4.5-29.4-45.7-29.4-45.7s15.4,3,22.8-4.9
	C253.8,218,269.1,214.6,273.1,212.5z"/>
<path class="st1" d="M227,225.4c0,0,31.2-0.2,44.8-3.4c0.3-6.4,0.2-8,0.2-8s-19.3,4.2-24.4-3.1c-6.7,7.9-22.4,5-22.4,5
	S226.5,224.1,227,225.4z"/>
<path class="st3" d="M381.4,239.1l-17.9-4.9c-1.2-0.3-2.5,0.4-2.9,1.6c-0.3,1.2,0.4,2.5,1.6,2.9l17.9,4.9c0.2,0.1,0.4,0.1,0.6,0.1
	c1,0,2-0.7,2.3-1.7C383.4,240.8,382.7,239.5,381.4,239.1z"/>
<path class="st3" d="M362.4,227.3c0,0,0.1,0,0.1,0l19-1.1c1.3-0.1,2.3-1.2,2.2-2.5c-0.1-1.3-1.2-2.3-2.5-2.2l-19,1.1
	c-1.3,0.1-2.3,1.2-2.2,2.5C360.1,226.3,361.2,227.3,362.4,227.3z"/>
<path class="st3" d="M330.8,200.3c-16.7-4-22.7-2.6-23.5,3.3c-0.8,5.5,3.7,6.5,14.5,8.9c9.4,2,18.1,6.1,21.1,0.8
	C346,207.9,342.1,203,330.8,200.3z"/>
<path class="st3" d="M163.9,210.1c-10.9,4-14.2,9.3-10.5,14.2c3.7,4.9,11.8-0.1,20.9-3.2c10.4-3.6,14.8-5.1,13.4-10.5
	C186.1,204.9,180,204.2,163.9,210.1z"/>
<path class="st3" d="M135.4,247.6l-17.2,6.9c-1.2,0.5-1.8,1.8-1.3,3.1c0.4,0.9,1.2,1.5,2.2,1.5c0.3,0,0.6-0.1,0.9-0.2l17.2-6.9
	c1.2-0.5,1.8-1.8,1.3-3.1C138,247.7,136.6,247.1,135.4,247.6z"/>
<path class="st3" d="M137.8,238.1c-0.1-1.3-1.2-2.3-2.5-2.2l-19,1.1c-1.3,0.1-2.3,1.2-2.2,2.5c0.1,1.2,1.1,2.2,2.3,2.2
	c0,0,0.1,0,0.1,0l19-1.1C136.9,240.5,137.9,239.4,137.8,238.1z"/>
<path class="st3" d="M280.1,199.3c-1.1,0.4-1.6,1.6-1.2,2.7c0,0,0.7,2.2-0.8,4.5c-1.6,2.5-6.1,5.6-18.3,6.3
	c-2.8,0.2-5.3-0.1-7.1-0.8c-2.7-1-3.1-2.6-3.1-3.7l-0.3-4.7c-0.1-1.2-1-2-2.2-2c-0.4,0-0.8,0.2-1.1,0.4c-0.6,0.4-0.9,1.1-0.9,1.8
	l0.3,4.7c0.1,1.1-0.1,2.8-2.7,4c-1.7,0.9-4.2,1.4-7,1.6c-12.1,0.7-16.9-1.9-18.9-4.2c-1.8-2.1-1.3-4.3-1.3-4.4
	c0.3-1.1-0.4-2.2-1.5-2.5c-1.1-0.3-2.2,0.4-2.5,1.5c0,0.2-1,4.3,2.1,8c3.6,4.4,11.1,6.4,22.3,5.8c0.6,0,1.2-0.1,1.8-0.1
	c2.1-0.2,4.6-0.8,6.8-1.8c1.4-0.7,2.5-1.5,3.3-2.5c0.9,0.9,2.1,1.6,3.5,2.1c2.3,0.8,4.8,1.1,7,1.1c0.6,0,1.3,0,1.8-0.1
	c11.1-0.7,18.4-3.4,21.5-8.2c2.7-4.1,1.2-8.1,1.2-8.2C282.3,199.5,281.1,198.9,280.1,199.3z"/>
<path class="st15" d="M237.7,254.2c0,0,11.7-23.9,27.6-2.6C260.2,262.8,244.3,264.4,237.7,254.2z"/>
</svg>
