<svg width="22" height="22" viewBox="0 0 22 22" fill="none" xmlns="http://www.w3.org/2000/svg">
<path fill-rule="evenodd" clip-rule="evenodd" d="M9.3672 3.76841L4.1172 8.37886C3.4116 9.0003 3 9.91567 3 10.8898V16.5164C3 18.322 4.4112 19.8 6.15 19.8H16.65C18.3888 19.8 19.8 18.322 19.8 16.5164V10.8898C19.8 9.91567 19.3884 9.0003 18.6828 8.37886L13.4328 3.76841C12.2568 2.74386 10.5432 2.74386 9.3672 3.76841ZM12.03 16.0209C12.03 16.3652 11.7444 16.6508 11.4 16.6508C11.0556 16.6508 10.77 16.3652 10.77 16.0209V15.8362C10.0308 15.7186 9.37556 15.3995 8.95556 14.9208C8.77076 14.7025 8.75396 14.3833 8.92196 14.1482C9.08996 13.9046 9.39236 13.8207 9.66116 13.9214L10.77 14.3413V12.8129C9.45956 12.6114 8.50196 11.7632 8.50196 10.7302C8.50196 9.6889 9.45956 8.84911 10.77 8.63917V8.46281C10.77 8.1101 11.0556 7.83297 11.4 7.83297C11.7444 7.83297 12.03 8.1101 12.03 8.46281V8.63917C12.7692 8.76513 13.4244 9.08426 13.8444 9.55454C14.0292 9.77289 14.046 10.092 13.878 10.3355C13.7604 10.5035 13.5672 10.6043 13.3656 10.6043C13.29 10.6043 13.2144 10.5875 13.1388 10.5623L12.03 10.134V11.6624C13.3404 11.864 14.298 12.7122 14.298 13.7535C14.298 14.7948 13.3404 15.6346 12.03 15.8446V16.0209Z" fill="#47131A"/>
<path d="M10.7702 11.5365C10.1654 11.3853 9.76221 11.041 9.76221 10.7303C9.76221 10.4111 10.1654 10.0668 10.7702 9.92407V11.5365Z" fill="#47131A"/>
<path d="M12.03 14.5597V12.9473C12.6348 13.09 13.038 13.4343 13.038 13.7535C13.038 14.0642 12.6348 14.4085 12.03 14.5597Z" fill="#47131A"/>
</svg>
