<svg width="20" height="20" viewBox="0 0 20 20" fill="none" xmlns="http://www.w3.org/2000/svg">
<path d="M19.1602 6.28748C19.1574 6.22148 19.151 6.15457 19.1336 6.09132C19.1272 6.0684 19.1143 6.0464 19.1061 6.02348C19.0868 5.97123 19.0694 5.9199 19.0419 5.87223C19.0273 5.84748 19.0071 5.82732 18.9897 5.80348C18.9603 5.76223 18.9319 5.72007 18.8962 5.68432C18.8751 5.66415 18.8476 5.64765 18.8247 5.6284C18.7889 5.59907 18.7559 5.56698 18.7147 5.54223C18.711 5.53948 18.7064 5.53948 18.7018 5.53673C18.6991 5.53582 18.6973 5.53307 18.6945 5.53123L10.4638 0.957068C10.1878 0.803068 9.85234 0.803984 9.57459 0.956151L1.30534 5.53032C1.30259 5.53307 1.29984 5.53673 1.29525 5.53948C1.2925 5.5404 1.28884 5.54132 1.28609 5.54315C1.254 5.56148 1.23017 5.58807 1.19992 5.61007C1.16692 5.63482 1.13209 5.65682 1.10275 5.68523C1.07525 5.71365 1.05417 5.74665 1.03034 5.77873C1.00559 5.81082 0.978085 5.83923 0.957919 5.87407C0.934085 5.91348 0.921252 5.9584 0.903835 6.00148C0.891002 6.03173 0.874502 6.06015 0.866252 6.09315C0.848835 6.15457 0.843335 6.22057 0.839669 6.28565C0.838752 6.30123 0.833252 6.31498 0.833252 6.33148V6.3324V6.33332V13.6667C0.833252 13.9994 1.01384 14.3065 1.30534 14.4678L9.53517 19.0392L9.53609 19.0401C9.537 19.0401 9.537 19.0402 9.53792 19.0411L9.55625 19.0512C9.59567 19.0732 9.63875 19.0851 9.68 19.1007C9.70934 19.1126 9.73775 19.1281 9.76892 19.1364C9.84317 19.1556 9.922 19.1667 9.99992 19.1667C10.0778 19.1667 10.1567 19.1556 10.2328 19.1364C10.263 19.1281 10.2914 19.1126 10.3217 19.1007C10.3629 19.0851 10.406 19.0741 10.4454 19.0512L10.4638 19.0411C10.4647 19.0402 10.4647 19.0401 10.4656 19.0401L10.4665 19.0392L18.6963 14.4678C18.986 14.3065 19.1666 13.9994 19.1666 13.6667V6.33332V6.3324V6.33148C19.1666 6.3159 19.1611 6.30307 19.1602 6.28748ZM9.97425 9.88265L3.63642 6.3379L6.16825 4.93723L12.4328 8.51682L9.97425 9.88265ZM10.0183 2.8069L16.3625 6.33332L14.3055 7.4764L8.04467 3.89865L10.0183 2.8069ZM10.9166 16.6926L10.9184 11.4868L13.6666 9.94865V12.75L15.4999 11.8333V8.9229L17.3333 7.89715V13.1267L10.9166 16.6926Z" fill="#47131A"/>
</svg>
